<?xml version="1.0" encoding="UTF-8" standalone="no"?>
<svg
   xmlns:dc="http://purl.org/dc/elements/1.1/"
   xmlns:cc="http://creativecommons.org/ns#"
   xmlns:rdf="http://www.w3.org/1999/02/22-rdf-syntax-ns#"
   xmlns:svg="http://www.w3.org/2000/svg"
   xmlns="http://www.w3.org/2000/svg"
   viewBox="0 0 5333.3335 4000"
   height="4000"
   width="5333.3335"
   xml:space="preserve"
   id="svg2"
   version="1.1"><metadata
     id="metadata8"><rdf:RDF><cc:Work
         rdf:about=""><dc:format>image/svg+xml</dc:format><dc:type
           rdf:resource="http://purl.org/dc/dcmitype/StillImage" /></cc:Work></rdf:RDF></metadata><defs
     id="defs6" /><g
     transform="matrix(1.3333333,0,0,-1.3333333,0,4000)"
     id="g10"><g
       transform="scale(0.1)"
       id="g12"><g
         transform="scale(2.45399)"
         id="g14"><path
           id="path16"
           style="fill:#ffffff;fill-opacity:0;fill-rule:nonzero;stroke:none"
           d="M 0,0 H 16300 V 12225 H 0 V 0" /></g><g
         transform="scale(1.82468)"
         id="g18"><path
           id="path20"
           style="fill:#e8e8f7;fill-opacity:1;fill-rule:nonzero;stroke:none"
           d="m 6595.84,6279.29 c 752.35,-1805.96 1791.54,-842.01 3112.76,-252.87 765.3,341.21 1316.7,361.55 2098.1,72.56 889.1,-328.93 1909.9,-606.02 2704.2,164.53 1789.1,1735.64 73,5362.99 -2062.5,4934.79 -723.3,-145 -1275.7,-828.7 -1982.6,-964.6 -687.27,-132.1 -1259.04,599 -1839.2,910.5 C 7601,11694.9 6812.75,10910.8 6438.28,9775.08 6045.77,8584.51 6149.84,7414.12 6595.84,6279.29" /></g><g
         transform="scale(1.85551)"
         id="g22"><path
           id="path24"
           style="fill:#119da4;fill-opacity:1;fill-rule:nonzero;stroke:none"
           d="M 16300,10995.8 V 8832.99 c 0,-123.25 -100.8,-224.03 -224.1,-224.03 h -2363.8 c -123.3,0 -224.2,100.78 -224.2,224.03 v 2162.81 c 0,123.2 100.9,224 224.2,224 h 2363.8 c 123.3,0 224.1,-100.8 224.1,-224" /></g><g
         transform="scale(1.85551)"
         id="g26"><path
           id="path28"
           style="fill:#292f52;fill-opacity:1;fill-rule:nonzero;stroke:none"
           d="m 16300,10995.8 v -248.5 h -2812.1 v 248.5 c 0,123.2 100.9,224 224.2,224 h 2363.8 c 123.3,0 224.1,-100.8 224.1,-224" /></g><g
         transform="scale(1.8351)"
         id="g30"><path
           id="path32"
           style="fill:#119da4;fill-opacity:1;fill-rule:nonzero;stroke:none"
           d="m 16141.4,11106.9 c 0,-43.8 35.5,-79.3 79.3,-79.3 43.8,0 79.3,35.5 79.3,79.3 0,43.7 -35.5,79.3 -79.3,79.3 -43.8,0 -79.3,-35.6 -79.3,-79.3" /></g><g
         transform="scale(1.80163)"
         id="g34"><path
           id="path36"
           style="fill:#8a6bff;fill-opacity:1;fill-rule:nonzero;stroke:none"
           d="m 16138.5,11313.3 c 0,-44.7 36.1,-80.8 80.7,-80.8 44.7,0 80.8,36.1 80.8,80.8 0,44.6 -36.1,80.7 -80.8,80.7 -44.6,0 -80.7,-36.1 -80.7,-80.7" /></g><g
         transform="scale(1.67399)"
         id="g38"><path
           id="path40"
           style="fill:#cfd2d3;fill-opacity:1;fill-rule:nonzero;stroke:none"
           d="m 16300,12175.9 c 0,-47.9 -53.8,-87 -119.5,-87 h -915.9 c -65.7,0 -119.4,39.1 -119.4,87 0,47.8 53.7,86.9 119.4,86.9 h 915.9 c 65.7,0 119.5,-39.1 119.5,-86.9" /></g><g
         transform="scale(1.75646)"
         id="g42"><path
           id="path44"
           style="fill:#e5e7e8;fill-opacity:1;fill-rule:nonzero;stroke:none"
           d="m 16240.8,10961.7 h -1649 c -32.6,0 -59.2,26.5 -59.2,59.2 0,32.7 26.6,59.2 59.2,59.2 h 1649 c 32.7,0 59.2,-26.5 59.2,-59.2 0,-32.7 -26.5,-59.2 -59.2,-59.2" /></g><g
         transform="scale(1.7199)"
         id="g46"><path
           id="path48"
           style="fill:#e5e7e8;fill-opacity:1;fill-rule:nonzero;stroke:none"
           d="m 16239.6,10914.1 h -1015.3 c -33.4,0 -60.4,27.1 -60.4,60.5 0,33.4 27,60.4 60.4,60.4 h 1015.3 c 33.4,0 60.4,-27 60.4,-60.4 0,-33.4 -27,-60.5 -60.4,-60.5" /></g><g
         transform="scale(1.78366)"
         id="g50"><path
           id="path52"
           style="fill:#e5e7e8;fill-opacity:1;fill-rule:nonzero;stroke:none"
           d="m 16241.7,10253.4 h -1561.6 c -32.2,0 -58.3,26.1 -58.3,58.3 0,32.2 26.1,58.3 58.3,58.3 h 1561.6 c 32.2,0 58.3,-26.1 58.3,-58.3 0,-32.2 -26.1,-58.3 -58.3,-58.3" /></g><g
         transform="scale(1.75646)"
         id="g54"><path
           id="path56"
           style="fill:#e5e7e8;fill-opacity:1;fill-rule:nonzero;stroke:none"
           d="m 16240.8,10137.4 h -899.4 c -32.7,0 -59.2,26.5 -59.2,59.2 0,32.7 26.5,59.2 59.2,59.2 h 899.4 c 32.7,0 59.2,-26.5 59.2,-59.2 0,-32.7 -26.5,-59.2 -59.2,-59.2" /></g><g
         transform="scale(1.81342)"
         id="g58"><path
           id="path60"
           style="fill:#e5e7e8;fill-opacity:1;fill-rule:nonzero;stroke:none"
           d="m 16242.7,9552.87 h -1803.5 c -31.7,0 -57.3,25.64 -57.3,57.35 0,31.65 25.6,57.3 57.3,57.3 h 1803.5 c 31.7,0 57.3,-25.65 57.3,-57.3 0,-31.71 -25.6,-57.35 -57.3,-57.35" /></g><g
         transform="scale(1.66634)"
         id="g62"><path
           id="path64"
           style="fill:#e5e7e8;fill-opacity:1;fill-rule:nonzero;stroke:none"
           d="M 16237.6,10106.5 H 15381 c -34.4,0 -62.4,27.9 -62.4,62.3 0,34.5 28,62.4 62.4,62.4 h 856.6 c 34.4,0 62.4,-27.9 62.4,-62.4 0,-34.4 -28,-62.3 -62.4,-62.3" /></g><g
         transform="scale(1.75646)"
         id="g66"><path
           id="path68"
           style="fill:#e5e7e8;fill-opacity:1;fill-rule:nonzero;stroke:none"
           d="m 16240.8,9313.16 h -1333.4 c -32.7,0 -59.1,26.48 -59.1,59.16 0,32.73 26.4,59.21 59.1,59.21 h 1333.4 c 32.7,0 59.2,-26.48 59.2,-59.21 0,-32.68 -26.5,-59.16 -59.2,-59.16" /></g><g
         transform="scale(1.10558)"
         id="g70"><path
           id="path72"
           style="fill:#3e4463;fill-opacity:1;fill-rule:nonzero;stroke:none"
           d="m 10976.2,14538.5 c -33.9,-160.1 -118.1,-301.7 -235.2,-407.5 -80,-72.8 -175.5,-128.9 -280.8,-162.8 -74.2,-24 -153.4,-36.6 -235.7,-36.6 -82.3,0 -161.4,12.6 -235.59,36.6 -104.93,33.9 -200.35,89.5 -280.4,162.3 -117.14,105.9 -201.25,247.9 -236.08,408 -10.85,52 -16.73,106.3 -16.73,161.9 0,55.6 5.88,109.9 17.18,162.3 34.38,160.1 118.49,301.7 235.63,407.5 80.05,72.8 175.47,128.5 280.85,162.4 74.14,23.9 153.34,36.6 235.14,36.6 82.3,0 161.5,-12.7 235.7,-36.6 105.3,-33.9 200.8,-90 280.8,-162.8 116.7,-105.9 200.8,-247.4 235.2,-407.1 11.3,-52.4 17.2,-106.7 17.2,-162.3 0,-55.6 -5.9,-109.9 -17.2,-161.9 z m 547.2,161.9 c 0,50.2 -2.7,99.9 -8.6,148.8 l 279.5,161.4 c -69.6,353.7 -256,665.7 -516.9,893.7 l -279.1,-161 c -79.1,59.2 -165.5,109.4 -257.3,148.8 v 322.4 c -161.9,55.7 -336,85.5 -516.5,85.5 -180.4,0 -354.09,-29.8 -515.99,-85 v -322.9 c -91.81,-39.4 -178.19,-89.6 -257.33,-148.8 l -279.5,161.4 c -260.98,-228.4 -447.29,-540.4 -516.94,-894.1 l 279.95,-161.9 c -5.88,-48.8 -8.6,-98.1 -8.6,-148.3 0,-50.2 2.72,-100 8.6,-148.4 l -279.51,-161.4 c 69.21,-354.1 255.52,-666.2 516.96,-894.1 l 279.04,161 c 79.14,-58.8 165.52,-109 257.33,-148.8 v -322.5 c 161.9,-55.1 335.59,-85 515.99,-85 180.5,0 354.6,29.9 516.5,85.5 v 322 c 91.8,39.8 178.2,90 257.3,148.8 l 279.1,-161 c 260.9,228.4 447.3,540 516.4,894.1 l -279,161.4 c 5.9,48.4 8.6,98.2 8.6,148.4" /></g><g
         transform="scale(1.33359)"
         id="g74"><path
           id="path76"
           style="fill:#0c7489;fill-opacity:1;fill-rule:nonzero;stroke:none"
           d="m 11976.6,15383.3 c 0,-165 -135,-300 -299.9,-300 h -1649.6 c -164.99,0 -299.96,135 -299.96,300 v 616.8 c 0,164.9 134.97,299.9 299.96,299.9 h 1649.6 c 164.9,0 299.9,-135 299.9,-299.9 v -616.8" /></g><g
         transform="scale(1.31705)"
         id="g78"><path
           id="path80"
           style="fill:#e5e7e8;fill-opacity:1;fill-rule:nonzero;stroke:none"
           d="m 11432.2,15485.3 c -18.8,0 -37.7,7 -52.5,21.1 -30.2,29 -31.3,77.1 -2.3,107.3 l 263,275 -263,275 c -29,30.3 -27.9,78.3 2.3,107.3 30.3,29 78.4,27.9 107.4,-2.4 l 313.2,-327.4 c 28.1,-29.4 28.1,-75.6 0,-105 l -313.2,-327.4 c -14.9,-15.6 -34.8,-23.5 -54.9,-23.5" /></g><g
         transform="scale(1.31705)"
         id="g82"><path
           id="path84"
           style="fill:#e5e7e8;fill-opacity:1;fill-rule:nonzero;stroke:none"
           d="m 10544,15485.3 c -20,0 -39.9,7.9 -54.9,23.5 l -313.2,327.4 c -28,29.4 -28,75.6 0,105 l 313.2,327.4 c 29,30.3 77.1,31.4 107.4,2.4 30.3,-29 31.4,-77.1 2.4,-107.4 l -263,-274.9 263,-275 c 29,-30.3 27.9,-78.3 -2.4,-107.3 -14.7,-14.1 -33.6,-21.1 -52.5,-21.1" /></g><g
         transform="scale(1.31721)"
         id="g86"><path
           id="path88"
           style="fill:#e5e7e8;fill-opacity:1;fill-rule:nonzero;stroke:none"
           d="m 10863.4,15483.4 c -8.9,0 -17.9,1.6 -26.7,4.9 -39.3,14.8 -59.1,58.6 -44.3,97.8 l 246.7,654.8 c 14.8,39.3 58.6,59.1 97.8,44.3 39.3,-14.8 59.1,-58.6 44.3,-97.8 l -246.7,-654.8 c -11.5,-30.4 -40.4,-49.2 -71.1,-49.2" /></g><g
         transform="scale(1.59299)"
         id="g90"><path
           id="path92"
           style="fill:#d8d8e6;fill-opacity:1;fill-rule:nonzero;stroke:none"
           d="m 16300,6282.22 c 0,-575.65 -1640.3,-1883.88 -3663.6,-1883.88 -2023.3,0 -3663.51,1308.23 -3663.51,1883.82 0,575.64 1640.21,1042.32 3663.51,1042.32 2023.3,0 3663.6,-466.68 3663.6,-1042.26" /></g><g
         transform="scale(1.57822)"
         id="g94"><path
           id="path96"
           style="fill:#292f52;fill-opacity:1;fill-rule:nonzero;stroke:none"
           d="m 14732.2,7940.46 c 254,-18.76 1504.4,-424.78 1536.1,-773.27 31.7,-348.5 -2629.5,-1885.04 -3795.8,-1869.2 -1166.2,15.84 -3395.82,1457.34 -3316.62,1800.57 79.2,343.17 922.52,801.6 1441.52,841.9 649.4,50.44 4134.8,0 4134.8,0" /></g><g
         transform="scale(1.32439)"
         id="g98"><path
           id="path100"
           style="fill:#292f52;fill-opacity:1;fill-rule:nonzero;stroke:none"
           d="m 14786.7,7213.98 c 210.8,-51.12 578.9,-334.27 711,-409.77 132.2,-75.51 707.9,-424.73 755.1,-575.74 47.2,-151.02 37.8,-594.62 -283.1,-726.75 -320.9,-132.14 -1396.9,235.95 -1538.5,368.09 -160.4,1047.66 355.5,1344.17 355.5,1344.17" /></g><g
         transform="scale(1.22154)"
         id="g102"><path
           id="path104"
           style="fill:#3e4463;fill-opacity:1;fill-rule:nonzero;stroke:none"
           d="m 11826.6,9219.02 c -117.4,-173.96 -150.8,-869.8 2.7,-1115.39 153.5,-245.6 1811.3,-1350.76 3724.8,-1739.62 -61.4,286.53 609.5,1129.89 745.9,1279.13 -1398.5,688.23 -3406.4,1852.17 -4473.4,1575.88" /></g><g
         transform="scale(1.24923)"
         id="g106"><path
           id="path108"
           style="fill:#292f52;fill-opacity:1;fill-rule:nonzero;stroke:none"
           d="m 15816.3,7326.98 c -857.1,96.69 -1949.6,-413.62 -2028.8,-733.82 -79.1,-320.19 -9,-700.43 191.1,-890.54 200.1,-190.12 1517.5,-110.15 2184.7,410.25 136.7,540.33 -347,1214.11 -347,1214.11" /></g><g
         transform="scale(1.23236)"
         id="g110"><path
           id="path112"
           style="fill:#bfbdc1;fill-opacity:1;fill-rule:nonzero;stroke:none"
           d="m 16020.2,7270.75 c -362.6,14.53 -1069.2,-171.46 -1272.1,-354.03 121.7,-314.44 213,-770.88 111.6,-923.03 405.7,-71 1194.6,131.86 1418.9,314.44 21.4,294.15 -258.4,962.62 -258.4,962.62" /></g><g
         transform="scale(1.59356)"
         id="g114"><path
           id="path116"
           style="fill:#3e4463;fill-opacity:1;fill-rule:nonzero;stroke:none"
           d="m 16111.7,7098.2 c 120.5,-203.94 188.3,-737.34 0,-925.6 -188.2,-188.26 -2196.3,-1202.78 -3440.9,-1380.56 -188.2,177.78 -324.2,847.16 -271.9,951.77 836.7,637.95 2729.7,1474.69 3712.8,1354.39" /></g><g
         transform="scale(1.44098)"
         id="g118"><path
           id="path120"
           style="fill:#0c7489;fill-opacity:1;fill-rule:nonzero;stroke:none"
           d="m 16013.7,9613.83 c 37,-467.32 -199.5,-520.48 -364.3,-633.25 -164.8,-112.77 -112.8,-451.08 -52,-1023.61 -373.1,-294.94 -2394.3,-737.35 -3513.3,-138.79 26,164.82 43.4,615.9 17.4,815.42 -26.1,199.51 -121.5,312.28 -459.8,511.8 -338.3,199.52 17.3,2342.2 164.8,2524.3 147.5,182.2 1058.3,754.7 1535.4,824.1 0,0 728.7,43.4 1023.6,0 295,-43.3 1362,-546.5 1648.2,-876.1 286.3,-329.7 -26,-1674.23 0,-2003.87" /></g><g
         transform="scale(1.50651)"
         id="g122"><path
           id="path124"
           style="fill:#119da4;fill-opacity:1;fill-rule:nonzero;stroke:none"
           d="m 14343.3,7436.46 c 44.3,11.02 973.6,165.95 1382.9,464.65 573.8,418.65 -177.5,2931.39 -369.8,3151.99 0,0 -147.1,241.8 -566.3,441.8 -319.3,-191.7 -243.2,-1074 -219.7,-1253.8 71.6,-547.76 298.1,-1303.02 348.2,-1477.06 -121.7,-132.76 -708.1,-398.28 -708.1,-398.28 l 132.8,-929.3" /></g><g
         transform="scale(1.12934)"
         id="g126"><path
           id="path128"
           style="fill:#119da4;fill-opacity:1;fill-rule:nonzero;stroke:none"
           d="m 16300,9846.16 c 0,0 -530.9,-24.62 -1033,147.61 -1805.7,619.43 -922,4077.03 -202.6,4896.13 0,0 242.1,260.7 560.3,422.9 261.3,-108.4 471.8,-797.5 317.8,-1585.3 -144.2,-737.9 -350.9,-2169.4 -350.9,-2317 162.4,-118 634.6,-354.2 634.6,-354.2 l 73.8,-1210.14" /></g><g
         transform="scale(1.41104)"
         id="g130"><path
           id="path132"
           style="fill:#cfd2d3;fill-opacity:1;fill-rule:nonzero;stroke:none"
           d="m 16128.1,7573.41 h -3967.5 l -171.9,2494.29 c 1028.6,161.8 3451.9,161.8 4311.3,0 l -171.9,-2494.29" /></g><g
         transform="scale(1.24744)"
         id="g134"><path
           id="path136"
           style="fill:#e6e8e8;fill-opacity:1;fill-rule:nonzero;stroke:none"
           d="m 16300,10046 c 0,-166.02 -134.6,-300.61 -300.6,-300.61 -166,0 -300.6,134.59 -300.6,300.61 0,166.1 134.6,300.6 300.6,300.6 166,0 300.6,-134.5 300.6,-300.6" /></g><g
         transform="scale(1.39617)"
         id="g138"><path
           id="path140"
           style="fill:#a2a9ad;fill-opacity:1;fill-rule:nonzero;stroke:none"
           d="m 16300,7654.11 v -208.86 h -4012.6 l 2.8,208.86 H 16300" /></g><g
         transform="scale(1.28402)"
         id="g142"><path
           id="path144"
           style="fill:#ffa993;fill-opacity:1;fill-rule:nonzero;stroke:none"
           d="m 16222.1,14585.6 c -16.8,-175.3 -32.5,-610.1 77.9,-765.8 -421.9,-370 -1233.1,-298.6 -1499.2,-45.5 58.4,207.8 58.4,636.1 0,772.4 -58.4,136.3 687.9,240.1 687.9,240.1 l 733.4,-201.2" /></g><g
         transform="scale(1.38509)"
         id="g146"><path
           id="path148"
           style="fill:#292f52;fill-opacity:1;fill-rule:nonzero;stroke:none"
           d="m 13159,14513.8 c -481.8,1143.5 237,1179.5 237,1179.5 156.4,525.5 1130.5,606.7 1455.9,493.4 535.5,-186.5 904.9,-757.4 660.6,-1633.7 0,0 -301.1,-1313.6 -1027.6,-1311.4 -728.7,2.3 -1325.9,1272.2 -1325.9,1272.2" /></g><g
         transform="scale(1.33054)"
         id="g150"><path
           id="path152"
           style="fill:#ffa993;fill-opacity:1;fill-rule:nonzero;stroke:none"
           d="m 16300,14830.4 c 0,-289.8 -258.8,-372.7 -419.6,-372.7 -160.9,0 -114.3,258.8 -114.3,421.4 0,162.6 22.3,324 183.2,324 160.9,0 350.7,-75.2 350.7,-372.7" /></g><g
         transform="scale(1.23663)"
         id="g154"><path
           id="path156"
           style="fill:#ffa993;fill-opacity:1;fill-rule:nonzero;stroke:none"
           d="m 14559.4,15899.1 c 0,-311.9 278.4,-401 451.4,-401 173.1,0 123,278.4 123,453.4 0,174.9 -24,348.5 -197.1,348.5 -173.1,0 -377.3,-80.9 -377.3,-400.9" /></g><g
         transform="scale(1.24625)"
         id="g158"><path
           id="path160"
           style="fill:#ff7d71;fill-opacity:1;fill-rule:nonzero;stroke:none"
           d="m 16300,14468.3 c -315.1,-142.7 -795.8,-124.9 -1010.2,0 4.1,98.2 6.5,221.8 0,293 253.8,-81.3 1010.2,-293 1010.2,-293" /></g><g
         transform="scale(1.31265)"
         id="g162"><path
           id="path164"
           style="fill:#ffb29e;fill-opacity:1;fill-rule:nonzero;stroke:none"
           d="m 14001.9,15270.6 c 0,-914.2 457.1,-1555.4 1282.4,-1555.4 825.2,0 1015.7,1079.3 1015.7,1555.4 0,476.1 -768.1,1022.1 -1180.7,1022.1 -1003.1,0 -1117.4,-1022.1 -1117.4,-1022.1" /></g><g
         transform="scale(1.31811)"
         id="g166"><path
           id="path168"
           style="fill:#ff7d71;fill-opacity:1;fill-rule:nonzero;stroke:none"
           d="m 13943.9,14970.2 c 335.1,211.9 423.3,560.2 499.4,603.9 441.1,252.8 746.9,-191.8 1365.6,25.2 0,0 126.5,-390 423.6,-509.5 13.9,251.3 -306.1,680.6 -494.5,851.1 -188.3,170.5 -1282.4,359.1 -1484.5,-51.3 -202.2,-410.4 -309.6,-919.4 -309.6,-919.4" /></g><g
         transform="scale(1.33865)"
         id="g170"><path
           id="path172"
           style="fill:#292f52;fill-opacity:1;fill-rule:nonzero;stroke:none"
           d="m 13730,14740.6 c 242.8,158.7 361,513.6 379.7,650.5 547.8,404.7 958.6,-118.3 1500.2,37.4 43.7,-199.2 242.8,-493 373.6,-570.2 24.1,156.5 109.6,415.1 41.2,589.4 -68.5,174.3 -151.2,790.1 -1229.2,821.2 -1078,31.1 -1239.8,-659.9 -1214.9,-871.5 24.9,-211.7 149.4,-656.8 149.4,-656.8" /></g><g
         transform="scale(1.26076)"
         id="g174"><path
           id="path176"
           style="fill:#292f52;fill-opacity:1;fill-rule:nonzero;stroke:none"
           d="m 16300,15590.9 c 0,-69.8 -33.3,-126.4 -74.4,-126.4 -41,0 -74.3,56.6 -74.3,126.4 0,69.8 33.3,126.4 74.3,126.4 41.1,0 74.4,-56.6 74.4,-126.4" /></g><g
         transform="scale(1.21569)"
         id="g178"><path
           id="path180"
           style="fill:#292f52;fill-opacity:1;fill-rule:nonzero;stroke:none"
           d="m 16063.7,16168.9 c 0,-72.4 -34.6,-131.1 -77.1,-131.1 -42.6,0 -77.2,58.7 -77.2,131.1 0,72.4 34.6,131.1 77.2,131.1 42.5,0 77.1,-58.7 77.1,-131.1" /></g><g
         transform="scale(1.27058)"
         id="g182"><path
           id="path184"
           style="fill:#ff7167;fill-opacity:1;fill-rule:nonzero;stroke:none"
           d="m 15999.9,15924 c 0,0 0.5,1.7 1.3,4.8 1.1,3.1 2.3,8.4 4.8,13.4 4.8,10.7 12.9,25.1 25.5,37.9 6.3,6.8 13.4,13.7 22,19.1 8.1,6.1 17.4,11.8 27.4,16.4 10.2,4.1 20.9,8.6 32.4,10.6 11.4,2.6 23.2,4 35.3,4.2 11.9,0.1 23.9,-0.7 35.6,-3.2 11.8,-1.7 23,-5.9 33.6,-10.2 10.6,-3.7 19.9,-10.8 28.6,-16.5 8.9,-5.2 16.1,-12.7 22.4,-19.7 12.9,-13.1 20.4,-28.1 24.7,-38.9 4.2,-10.9 5.6,-18 5.6,-18 l 0.6,-3.1 c 0.3,-1.8 -0.9,-3.5 -2.7,-3.9 -0.6,-0.1 -1.3,0 -2,0.3 0,0 -4.3,2 -11.8,5.5 -7.5,3.8 -18.4,8.5 -31.8,13.1 -6.6,2.6 -13.7,5.2 -21.7,6.9 -7.9,1.9 -16,4.5 -24.8,5.5 -17.4,2.9 -36.2,4.5 -55,3.5 -37.6,0.4 -75.2,-7.9 -102,-17.1 -27.1,-8.7 -44,-17.4 -44,-17.4 -1.6,-0.9 -3.6,-0.2 -4.5,1.4 -0.4,0.8 -0.5,1.6 -0.3,2.3 l 0.8,3.1" /></g><g
         transform="scale(1.24945)"
         id="g186"><path
           id="path188"
           style="fill:#ff7167;fill-opacity:1;fill-rule:nonzero;stroke:none"
           d="m 15360.3,16193.3 c 0,0 1.4,7.1 5.8,17.5 4.4,10.3 11.6,23.8 22.7,36.2 5.5,6.3 11.6,13.1 19,18.3 7.3,5.5 15,12 24,16.1 17.5,9.4 38.4,15.2 60.4,17.1 21.9,1.5 45.3,-1.9 66.2,-9.9 20.9,-8.9 39.1,-21.5 51.1,-36.3 6.2,-7.2 10.7,-15 14.2,-21.8 3.7,-6.4 5.1,-14.2 6.5,-19.5 2.4,-11.4 2.1,-18.3 2.1,-18.3 l -0.2,-3.4 c -0.1,-1.8 -1.6,-3.2 -3.4,-3.1 -0.6,0 -1.2,0.2 -1.7,0.5 0,0 -3.6,2.3 -9.8,6.4 -6,4.7 -15.8,8.9 -27.3,14.2 -11.8,4.7 -26.1,8.7 -41.9,10.9 -15.8,1.9 -33,2.2 -50,0.5 -34.4,-2 -68.4,-10.1 -93.1,-18.3 -25,-7.7 -41.1,-14.3 -41.1,-14.3 -1.6,-0.6 -3.4,0.1 -4,1.7 -0.3,0.6 -0.4,1.2 -0.2,1.8 l 0.7,3.7" /></g><g
         transform="scale(1.24007)"
         id="g190"><path
           id="path192"
           style="fill:#ff7167;fill-opacity:1;fill-rule:nonzero;stroke:none"
           d="m 16231.8,15557.1 c 0,0 1.9,-5.6 5.1,-15.6 2.9,-9.6 8.9,-23.4 15.1,-40.1 12.8,-33.4 30.9,-78.3 40.7,-128 4.2,-24.9 7.3,-51.4 -0.1,-78.3 -3.4,-13.4 -11.3,-26.8 -22,-35.7 -10.8,-9 -23.1,-13.3 -33.5,-14.9 -21.4,-3.5 -36.9,1.4 -47.9,3.1 -10.6,3.1 -16.5,5.1 -16.5,5.1 -3.3,1.2 -5.1,4.9 -3.9,8.2 0.9,2.6 3.1,4.2 5.7,4.3 l 0.5,0.1 c 0,0 6.1,0.2 16.2,0.2 9.9,0.4 25,1.2 39,6.4 14.2,5.5 24,14.4 26.7,32 3.1,17.3 0.6,39.9 -3.8,62.1 -8.9,44.9 -22.5,91.4 -28.8,127.7 -3.6,18 -4.5,33.6 -5.3,44.7 -0.7,11.4 0.2,17.2 0.2,17.2 l 0.1,0.6 c 0.5,3.4 3.8,5.9 7.4,5.4 2.4,-0.4 4.4,-2.2 5.1,-4.5" /></g><g
         transform="scale(1.25405)"
         id="g194"><path
           id="path196"
           style="fill:#ff7167;fill-opacity:1;fill-rule:nonzero;stroke:none"
           d="m 15651.9,14889.8 c 0,0 10.1,-4.2 27.2,-12.3 8.6,-4.7 18.9,-8.1 30.1,-12 11.1,-4.1 23.7,-8.4 38.6,-12.3 14.3,-4.3 30.2,-7.9 47.1,-11.4 16.6,-4.2 35,-5.5 53.4,-9 18.7,-2 38,-4 57.7,-5.4 19.9,-1.3 39.9,-1.9 60,-1.7 20.2,-0.9 40.4,1.1 60.2,1.7 19.7,2.2 39.5,2.2 58,5.6 18.8,2.5 36.9,4.8 53.8,8.4 17.4,2.8 32.6,7.7 47.7,10.7 14,4.7 27.6,8.2 39.1,12.3 10.9,5 21.5,8.1 29.4,11.9 15.3,8 24.9,12.5 24.9,12.5 l 1.9,0.9 c 6.3,2.9 13.9,0.2 16.8,-6.1 2.2,-4.6 1.2,-9.9 -1.9,-13.5 0,0 -7.2,-8.6 -21.4,-23.3 -14.9,-13.5 -38,-30.9 -68.4,-46.7 -15.4,-6.6 -31.9,-16.1 -50.4,-21.4 -18.4,-6.6 -37.8,-13.1 -58.5,-17.2 -20.6,-5.3 -42,-8.1 -64,-11.4 -22,-1.5 -44.4,-4.2 -66.8,-3.8 -22.5,-0.7 -45,1.4 -67.1,3.4 -22.1,1.7 -43.6,6.4 -64.4,10.6 -20.4,5.5 -40.4,9.9 -58.6,17.8 -9.1,3.5 -17.9,6.8 -26.4,10.2 -8.3,4.2 -16.1,8.3 -23.8,12.2 -15.2,7.3 -28.7,16.2 -40.3,24.9 -11.9,8.1 -21.3,15.6 -27.5,22.4 -13.5,13.3 -20.9,21.3 -20.9,21.3 -4.8,5.3 -4.4,13.4 0.8,18.3 3.8,3.4 9.2,4.2 13.7,2.4" /></g></g></g></svg>